<svg width="113" height="113" viewBox="0 0 113 113" fill="none" xmlns="http://www.w3.org/2000/svg">
<path d="M102.134 87.426L84.3065 65.4712C84.3354 65.4019 84.3677 65.3348 84.3926 65.2635L86.3568 59.6424L90.8093 55.679C91.2328 55.304 91.5654 54.8376 91.7821 54.3151C91.9989 53.7926 92.094 53.2277 92.0603 52.6631L91.7202 46.7202L94.3136 41.3598C94.5614 40.851 94.6902 40.2925 94.6902 39.7266C94.6902 39.1607 94.5614 38.6022 94.3136 38.0934L91.7206 32.7327L92.0607 26.7894C92.0944 26.2248 91.9992 25.6599 91.7825 25.1375C91.5657 24.615 91.233 24.1487 90.8095 23.7737L86.3573 19.8108L84.393 14.1899C84.2078 13.6558 83.9037 13.1707 83.5037 12.7712C83.1037 12.3717 82.6182 12.0683 82.0838 11.8838L76.4493 9.92238L72.4766 5.47786C72.1012 5.05581 71.6349 4.7244 71.1129 4.50857C70.5909 4.29273 70.0268 4.19809 69.4629 4.23177L63.5039 4.57144L58.1307 1.98215C57.6225 1.73574 57.065 1.60773 56.5002 1.60773C55.9355 1.60773 55.378 1.73574 54.8698 1.98215L49.4952 4.57144L43.5363 4.23177C42.9724 4.19813 42.4082 4.29283 41.8862 4.50875C41.3642 4.72466 40.8979 5.05616 40.5226 5.47831L36.5499 9.92238L30.9154 11.884C30.3813 12.0686 29.896 12.3721 29.4963 12.7715C29.0965 13.171 28.7927 13.6559 28.6077 14.1899L26.6434 19.811L22.1905 23.7742C21.7671 24.1492 21.4344 24.6156 21.2177 25.138C21.001 25.6605 20.9059 26.2254 20.9396 26.7901L21.2797 32.7329L18.6866 38.0934C18.4388 38.6022 18.3101 39.1607 18.3101 39.7266C18.3101 40.2925 18.4388 40.851 18.6866 41.3598L21.2797 46.7204L20.9396 52.6638C20.9059 53.2284 21.0011 53.7933 21.2178 54.3157C21.4346 54.8381 21.7673 55.3045 22.1907 55.6794L26.643 59.6426L28.6072 65.2635C28.7925 65.7976 29.0965 66.2827 29.4966 66.6822C29.8966 67.0817 30.3821 67.3851 30.9165 67.5696L36.551 69.531L40.5237 73.9755C40.8681 74.3615 41.289 74.6716 41.7597 74.8862C42.2305 75.1008 42.7407 75.2151 43.258 75.2218V109.469C43.2006 111.377 45.4098 112.742 47.0909 111.838L56.5001 107.133L65.9094 111.838C67.5885 112.742 69.8004 111.377 69.7423 109.469V89.5503L81.5753 104.12C82.7391 105.64 85.3083 105.303 86.0439 103.543L90.382 93.9608L100.652 91.6812C102.527 91.3237 103.381 88.871 102.134 87.426ZM40.0441 65.4901C39.7447 65.155 39.3649 64.9015 38.9406 64.7537L33.3625 62.8115L31.4172 57.2462C31.2684 56.8216 31.0139 56.4419 30.6779 56.1427L26.2704 52.2184L26.6072 46.3362C26.6331 45.8863 26.5436 45.4372 26.3472 45.0316L23.7809 39.7266L26.3472 34.4207C26.5436 34.015 26.6331 33.566 26.6072 33.1161L26.2704 27.2348L30.6779 23.3109C31.0139 23.0117 31.2684 22.632 31.4172 22.2074L33.3621 16.641L38.9401 14.6988C39.3645 14.5509 39.7442 14.2975 40.0436 13.9624L43.9766 9.56176L49.8768 9.89811C50.3252 9.92398 50.7728 9.83511 51.1772 9.63988L56.5001 7.0762L61.8226 9.64055C62.2272 9.8353 62.6747 9.92415 63.123 9.89877L69.0233 9.56242L72.9562 13.963C73.2556 14.2982 73.6354 14.5516 74.0597 14.6995L79.6378 16.6417L81.583 22.2069C81.7319 22.6315 81.9863 23.0113 82.3224 23.3105L86.7298 27.2348L86.3931 33.117C86.3672 33.5669 86.4567 34.0159 86.653 34.4215L89.2194 39.7266L86.653 45.0325C86.4567 45.4381 86.3672 45.8872 86.3931 46.3371L86.7298 52.2184L82.3224 56.1423C81.9863 56.4414 81.7319 56.8212 81.583 57.2458L79.6382 62.8121L74.0602 64.7543C73.6358 64.9022 73.256 65.1557 72.9566 65.4908L69.0237 69.8914L63.1234 69.555C62.6751 69.5295 62.2276 69.6183 61.8231 69.8133L56.5001 72.377L51.1777 69.8126C50.8191 69.6398 50.4261 69.55 50.028 69.55C49.9778 69.55 49.9276 69.5514 49.8773 69.5544L43.977 69.8907L40.0441 65.4901ZM64.4454 105.183L57.6847 101.803C57.3169 101.619 56.9113 101.523 56.5001 101.523C56.0889 101.523 55.6834 101.619 55.3156 101.803L48.5548 105.183V74.9353L49.4952 74.8817L54.8696 77.471C55.3778 77.7175 55.9352 77.8456 56.5 77.8456C57.0648 77.8456 57.6223 77.7175 58.1305 77.471L63.505 74.8817L64.4454 74.9353V105.183ZM87.9413 89.0769C87.5399 89.166 87.1648 89.3473 86.8457 89.6065C86.5266 89.8657 86.2722 90.1956 86.1026 90.5702L82.9856 97.4546L69.7434 81.1484V75.2218C70.2609 75.2153 70.7714 75.1011 71.2422 74.8864C71.7131 74.6717 72.1341 74.3613 72.4784 73.9749L76.451 69.5308L79.8278 68.3553L95.3234 87.4389L87.9413 89.0769Z" fill="black"/>
<path d="M82.1016 39.7266C82.1016 34.6631 80.6001 29.7133 77.7869 25.5031C74.9738 21.293 70.9754 18.0115 66.2973 16.0738C61.6192 14.1361 56.4716 13.6291 51.5054 14.6169C46.5392 15.6048 41.9774 18.0431 38.397 21.6235C34.8165 25.204 32.3782 29.7657 31.3904 34.732C30.4025 39.6982 30.9095 44.8458 32.8473 49.5239C34.785 54.202 38.0664 58.2004 42.2765 61.0135C46.4867 63.8266 51.4365 65.3282 56.5 65.3282C63.2876 65.3204 69.795 62.6207 74.5945 57.8211C79.3941 53.0216 82.0939 46.5142 82.1016 39.7266ZM36.1953 39.7266C36.1953 35.7107 37.3862 31.785 39.6173 28.4459C41.8484 25.1068 45.0195 22.5043 48.7297 20.9675C52.4399 19.4307 56.5225 19.0286 60.4613 19.812C64.4 20.5955 68.0179 22.5293 70.8576 25.369C73.6973 28.2087 75.6311 31.8266 76.4145 35.7653C77.198 39.7041 76.7959 43.7867 75.2591 47.4969C73.7223 51.2071 71.1198 54.3782 67.7807 56.6093C64.4416 58.8404 60.5159 60.0313 56.5 60.0313C51.1167 60.0254 45.9555 57.8843 42.1489 54.0777C38.3423 50.2711 36.2012 45.1099 36.1953 39.7266Z" fill="black"/>
<path d="M62.6798 50.3203C63.3822 50.3203 64.0559 50.0413 64.5525 49.5446C65.0492 49.0479 65.3282 48.3743 65.3282 47.6719C65.3282 46.9695 65.0492 46.2958 64.5525 45.7991C64.0559 45.3025 63.3822 45.0234 62.6798 45.0234H60.0314V28.25C60.0314 27.7262 59.876 27.2142 59.585 26.7787C59.294 26.3432 58.8804 26.0037 58.3964 25.8033C57.9125 25.6028 57.38 25.5504 56.8663 25.6526C56.3526 25.7547 55.8807 26.007 55.5103 26.3773L48.4478 33.4398C47.9578 33.9379 47.6844 34.6094 47.6873 35.308C47.6901 36.0067 47.9689 36.6759 48.463 37.17C48.957 37.664 49.6262 37.9428 50.3249 37.9457C51.0236 37.9485 51.6951 37.6752 52.1931 37.1852L54.7345 34.644V45.0234H52.0861C51.3837 45.0234 50.71 45.3025 50.2133 45.7991C49.7167 46.2958 49.4376 46.9695 49.4376 47.6719C49.4376 48.3743 49.7167 49.0479 50.2133 49.5446C50.71 50.0413 51.3837 50.3203 52.0861 50.3203H62.6798Z" fill="black"/>
</svg>

