<svg width="100" height="100" viewBox="0 0 100 100" fill="none" xmlns="http://www.w3.org/2000/svg">
<g clip-path="url(#clip0)">
<path d="M49.9999 58.3333C33.9166 58.3333 20.8333 45.25 20.8333 29.1667C20.8333 13.0833 33.9166 0 49.9999 0C66.0833 0 79.1666 13.0833 79.1666 29.1667C79.1666 45.25 66.0833 58.3333 49.9999 58.3333ZM49.9999 4.16667C36.2124 4.16667 24.9999 15.3833 24.9999 29.1667C24.9999 42.95 36.2124 54.1667 49.9999 54.1667C63.7874 54.1667 74.9999 42.9542 74.9999 29.1667C74.9999 15.3792 63.7874 4.16667 49.9999 4.16667Z" fill="black"/>
<path d="M56.2501 43.75H43.7501C42.6001 43.75 41.6667 42.8166 41.6667 41.6666V35.4166C41.6667 30.8208 45.4042 27.0833 50.0001 27.0833C52.2959 27.0833 54.1667 25.2125 54.1667 22.9166C54.1667 20.6208 52.2959 18.75 50.0001 18.75H43.7501C42.6001 18.75 41.6667 17.8208 41.6667 16.6666C41.6667 15.5125 42.6001 14.5833 43.7501 14.5833H50.0001C54.5959 14.5833 58.3334 18.3208 58.3334 22.9166C58.3334 27.5125 54.5959 31.25 50.0001 31.25C47.7042 31.25 45.8334 33.1208 45.8334 35.4166V39.5833H56.2501C57.4001 39.5833 58.3334 40.5166 58.3334 41.6666C58.3334 42.8166 57.4001 43.75 56.2501 43.75Z" fill="black"/>
<path d="M31.9792 100C31.9584 100 31.9334 100 31.9084 100C31.1375 99.975 30.4459 99.5292 30.1084 98.8375L24.1 86.6292L10.4875 87.4958C9.71254 87.5125 8.9917 87.1667 8.58337 86.5167C8.1792 85.8625 8.16254 85.0417 8.55004 84.375L29.5542 47.975C30.1292 46.9792 31.4042 46.6375 32.4 47.2125C33.3959 47.7875 33.7375 49.0625 33.1625 50.0583L14.1 83.0917L25.2209 82.3833C26.0959 82.3333 26.8542 82.7875 27.2209 83.5417L32.125 93.5L48.05 65.9583C48.625 64.9625 49.8959 64.6208 50.8959 65.1958C51.8917 65.775 52.2334 67.0458 51.6542 68.0458L33.7792 98.9625C33.4084 99.6042 32.7209 100 31.9792 100Z" fill="black"/>
<path d="M67.7291 100C66.9874 100 66.2999 99.6042 65.9249 98.9583L41.5749 56.6125C41.0082 55.6125 41.3582 54.3417 42.3582 53.7709C43.3666 53.2084 44.6332 53.5584 45.1999 54.5542L51.6666 65.9667L67.5874 93.5042L72.5291 83.525C72.8999 82.775 73.6541 82.325 74.5291 82.3708L85.6499 83.0792L66.6541 50.15C66.0791 49.1542 66.4207 47.8792 67.4166 47.3042C68.4166 46.725 69.6832 47.0667 70.2624 48.0667L91.1999 84.3667C91.5832 85.0333 91.5707 85.8542 91.1666 86.5083C90.7582 87.1625 90.0332 87.5125 89.2624 87.4875L75.6457 86.6167L69.5957 98.8333C69.2541 99.5208 68.5624 99.9625 67.7957 99.9875C67.7749 100 67.7499 100 67.7291 100Z" fill="black"/>
</g>
<defs>
<clipPath id="clip0">
<rect width="100" height="100" fill="white"/>
</clipPath>
</defs>
</svg>

